<?xml version="1.0" encoding="utf-8"?>
<!-- Generator: Adobe Illustrator 17.0.0, SVG Export Plug-In . SVG Version: 6.00 Build 0)  -->
<!DOCTYPE svg PUBLIC "-//W3C//DTD SVG 1.1 Tiny//EN" "http://www.w3.org/Graphics/SVG/1.1/DTD/svg11-tiny.dtd">
<svg version="1.1" baseProfile="tiny" id="Layer_1" xmlns="http://www.w3.org/2000/svg" xmlns:xlink="http://www.w3.org/1999/xlink"
	 x="0px" y="0px" width="256px" height="256px" viewBox="0 0 256 256" overflow="scroll" xml:space="preserve">
<circle fill="none" stroke="#000000" stroke-width="12" stroke-miterlimit="10" cx="127.357" cy="128.357" r="109.383"/>
<g>
	<path d="M193.657,125.963H62.134V97.779c0-6.459,5.284-11.743,11.743-11.743h25.835V74.293c0-3.89,3.156-7.046,7.046-7.046h42.275
		c3.891,0,7.046,3.156,7.046,7.046v11.743h25.835c6.459,0,11.743,5.284,11.743,11.743V125.963z M193.657,168.238
		c0,6.459-5.284,11.743-11.743,11.743H73.877c-6.459,0-11.743-5.284-11.743-11.743v-35.229h49.321v11.743
		c0,2.568,2.128,4.697,4.697,4.697h23.486c2.569,0,4.697-2.129,4.697-4.697v-11.743h49.321V168.238z M146.685,86.036v-9.395h-37.578
		v9.395H146.685z M137.29,142.403h-18.789v-9.395h18.789V142.403z"/>
</g>
</svg>
