<?xml version="1.0" encoding="utf-8"?>
<!-- Generator: Adobe Illustrator 17.0.0, SVG Export Plug-In . SVG Version: 6.00 Build 0)  -->
<!DOCTYPE svg PUBLIC "-//W3C//DTD SVG 1.1 Tiny//EN" "http://www.w3.org/Graphics/SVG/1.1/DTD/svg11-tiny.dtd">
<svg version="1.1" baseProfile="tiny" id="Layer_1" xmlns="http://www.w3.org/2000/svg" xmlns:xlink="http://www.w3.org/1999/xlink"
	 x="0px" y="0px" width="256px" height="256px" viewBox="0 0 256 256" overflow="scroll" xml:space="preserve">
<circle fill="none" stroke="#000000" stroke-width="10" stroke-miterlimit="10" cx="128.357" cy="128.357" r="109.383"/>
<g>
	<path d="M187.81,109.823l-53.127,53.127l-9.98,9.979c-1.321,1.321-3.155,2.055-4.99,2.055s-3.669-0.733-4.99-2.055l-9.979-9.979
		L78.18,136.387c-1.321-1.32-2.055-3.155-2.055-4.99c0-1.834,0.734-3.668,2.055-4.989l9.979-9.979
		c1.321-1.321,3.155-2.055,4.99-2.055s3.669,0.734,4.99,2.055l21.574,21.646l48.137-48.21c1.321-1.321,3.155-2.055,4.99-2.055
		c1.834,0,3.669,0.734,4.989,2.055l9.98,9.979c1.32,1.321,2.054,3.155,2.054,4.99S189.13,108.502,187.81,109.823z"/>
</g>
</svg>
