<?xml version="1.0" encoding="utf-8"?>
<!-- Generator: Adobe Illustrator 17.0.0, SVG Export Plug-In . SVG Version: 6.00 Build 0)  -->
<!DOCTYPE svg PUBLIC "-//W3C//DTD SVG 1.1 Tiny//EN" "http://www.w3.org/Graphics/SVG/1.1/DTD/svg11-tiny.dtd">
<svg version="1.1" baseProfile="tiny" id="Layer_1" xmlns="http://www.w3.org/2000/svg" xmlns:xlink="http://www.w3.org/1999/xlink"
	 x="0px" y="0px" width="256px" height="256px" viewBox="0 0 256 256" overflow="scroll" xml:space="preserve">
<circle fill="none" stroke="#000000" stroke-width="12" stroke-miterlimit="10" cx="127.357" cy="128.357" r="109.383"/>
<g>
	<path d="M129.706,166.184c-3.597,0-7.193-0.22-10.643-0.587c-9.615,8.514-21.064,14.532-33.762,17.762
		c-2.642,0.733-5.504,1.247-8.367,1.614c-0.146,0-0.293,0-0.367,0c-1.468,0-2.789-1.175-3.156-2.789c0-0.073,0-0.073,0-0.073
		c-0.367-1.835,0.881-2.936,1.982-4.257c4.624-5.211,9.908-9.615,13.358-21.872c-15.12-8.587-24.808-21.871-24.808-36.77
		c0-25.982,29.431-46.973,65.762-46.973c36.33,0,65.762,20.991,65.762,46.973C195.468,145.192,166.036,166.184,129.706,166.184z
		 M73.338,119.211c0,10.935,7.339,21.357,20.037,28.55l6.385,3.67l-1.981,7.046c-1.395,5.211-3.229,9.247-5.138,12.623
		c7.413-3.082,14.165-7.266,20.184-12.55l3.156-2.789l4.183,0.44c3.156,0.367,6.386,0.587,9.542,0.587
		c30.532,0,56.367-17.175,56.367-37.578c0-20.404-25.835-37.578-56.367-37.578C99.173,81.633,73.338,98.808,73.338,119.211z"/>
</g>
</svg>
