<?xml version="1.0" encoding="utf-8"?>
<!-- Generator: Adobe Illustrator 17.0.0, SVG Export Plug-In . SVG Version: 6.00 Build 0)  -->
<!DOCTYPE svg PUBLIC "-//W3C//DTD SVG 1.1 Tiny//EN" "http://www.w3.org/Graphics/SVG/1.1/DTD/svg11-tiny.dtd">
<svg version="1.1" baseProfile="tiny" id="Layer_1" xmlns="http://www.w3.org/2000/svg" xmlns:xlink="http://www.w3.org/1999/xlink"
	 x="0px" y="0px" width="256px" height="256px" viewBox="0 0 256 256" overflow="scroll" xml:space="preserve">
<circle fill="none" stroke="#000000" stroke-width="12" stroke-miterlimit="10" cx="127.357" cy="128.357" r="109.383"/>
<g>
	<path d="M170.473,103.619c-0.273,33.012-23.684,40.328-39.23,45.265c-14.539,4.572-19.294,6.768-19.294,15.638v2.378
		c5.212,3.018,8.779,8.688,8.779,15.18c0,9.693-7.864,17.558-17.558,17.558s-17.558-7.864-17.558-17.558
		c0-6.492,3.566-12.162,8.779-15.18V91.914c-5.212-3.018-8.779-8.688-8.779-15.18c0-9.693,7.864-17.558,17.558-17.558
		s17.558,7.864,17.558,17.558c0,6.493-3.566,12.162-8.779,15.18v45.449c4.664-2.286,9.602-3.841,14.083-5.213
		c17.009-5.395,26.702-9.419,26.886-28.531c-5.213-3.018-8.779-8.688-8.779-15.18c0-9.693,7.864-17.558,17.558-17.558
		s17.558,7.864,17.558,17.558C179.252,94.931,175.686,100.601,170.473,103.619z M103.169,67.955c-4.847,0-8.779,3.932-8.779,8.779
		s3.932,8.779,8.779,8.779s8.779-3.932,8.779-8.779S108.016,67.955,103.169,67.955z M103.169,173.301
		c-4.847,0-8.779,3.932-8.779,8.778s3.932,8.778,8.779,8.778s8.779-3.932,8.779-8.778S108.016,173.301,103.169,173.301z
		 M161.694,79.66c-4.847,0-8.778,3.932-8.778,8.779s3.932,8.779,8.778,8.779s8.778-3.932,8.778-8.779S166.541,79.66,161.694,79.66z"
		/>
</g>
</svg>
