<?xml version="1.0" encoding="utf-8"?>
<!-- Generator: Adobe Illustrator 17.0.0, SVG Export Plug-In . SVG Version: 6.00 Build 0)  -->
<!DOCTYPE svg PUBLIC "-//W3C//DTD SVG 1.1 Tiny//EN" "http://www.w3.org/Graphics/SVG/1.1/DTD/svg11-tiny.dtd">
<svg version="1.1" baseProfile="tiny" id="Layer_1" xmlns="http://www.w3.org/2000/svg" xmlns:xlink="http://www.w3.org/1999/xlink"
	 x="0px" y="0px" width="256px" height="256px" viewBox="0 0 256 256" overflow="scroll" xml:space="preserve">
<circle fill="#FFFFFF" stroke="#000000" stroke-width="6" stroke-miterlimit="10" cx="127.357" cy="128.357" r="109.383"/>
<path fill="#FFFFFF" stroke="#000000" stroke-width="10" stroke-miterlimit="10" d="M164,180.396c0,5.857-4.033,10.604-9.008,10.604
	H94.008C89.033,191,85,186.252,85,180.396V70.604C85,64.748,89.033,60,94.008,60h60.984c4.975,0,9.008,4.748,9.008,10.604V180.396z"
	/>
<g>
	<path d="M119,87c0,13,0,26,0,39c0,6.449,10,6.449,10,0c0-13,0-26,0-39C129,80.551,119,80.551,119,87L119,87z"/>
</g>
</svg>
