<?xml version="1.0" encoding="utf-8"?>
<!-- Generator: Adobe Illustrator 17.0.0, SVG Export Plug-In . SVG Version: 6.00 Build 0)  -->
<!DOCTYPE svg PUBLIC "-//W3C//DTD SVG 1.1 Tiny//EN" "http://www.w3.org/Graphics/SVG/1.1/DTD/svg11-tiny.dtd">
<svg version="1.1" baseProfile="tiny" id="Layer_1" xmlns="http://www.w3.org/2000/svg" xmlns:xlink="http://www.w3.org/1999/xlink"
	 x="0px" y="0px" width="256px" height="256px" viewBox="0 0 256 256" overflow="scroll" xml:space="preserve">
<circle fill="none" stroke="#000000" stroke-width="10" stroke-miterlimit="10" cx="127.357" cy="128.357" r="109.383"/>
<g>
	<path d="M95.421,167.476c-1.073,1.073-2.724,1.073-3.797,0l-38.461-38.461c-1.073-1.073-1.073-2.724,0-3.797l38.461-38.461
		c1.073-1.073,2.724-1.073,3.797,0l4.126,4.126c1.073,1.073,1.073,2.724,0,3.797l-32.436,32.436l32.436,32.437
		c1.073,1.072,1.073,2.724,0,3.796L95.421,167.476z M117.54,181.837c-0.413,1.403-1.898,2.229-3.219,1.815l-5.117-1.403
		c-1.403-0.412-2.229-1.897-1.816-3.301l30.786-106.553c0.413-1.403,1.898-2.229,3.219-1.815l5.117,1.403
		c1.403,0.413,2.229,1.898,1.815,3.301L117.54,181.837z M164.09,167.476c-1.073,1.073-2.724,1.073-3.797,0l-4.127-4.127
		c-1.072-1.072-1.072-2.724,0-3.796l32.437-32.437L156.166,94.68c-1.072-1.073-1.072-2.724,0-3.797l4.127-4.126
		c1.073-1.073,2.724-1.073,3.797,0l38.461,38.461c1.073,1.073,1.073,2.724,0,3.797L164.09,167.476z"/>
</g>
</svg>
