<?xml version="1.0" encoding="utf-8"?>
<!-- Generator: Adobe Illustrator 17.0.0, SVG Export Plug-In . SVG Version: 6.00 Build 0)  -->
<!DOCTYPE svg PUBLIC "-//W3C//DTD SVG 1.1 Tiny//EN" "http://www.w3.org/Graphics/SVG/1.1/DTD/svg11-tiny.dtd">
<svg version="1.1" baseProfile="tiny" id="Layer_1" xmlns="http://www.w3.org/2000/svg" xmlns:xlink="http://www.w3.org/1999/xlink"
	 x="0px" y="0px" width="256px" height="256px" viewBox="0 0 256 256" xml:space="preserve">
<circle fill="none" stroke="#000000" stroke-width="12" stroke-miterlimit="10" cx="127.357" cy="128.357" r="109.383"/>
<g>
	<path d="M167.136,121.046l-61.064,61.064H75.539v-30.532l61.064-61.064L167.136,121.046z M108.86,166.037l-17.248-17.248
		l-6.679,6.679v7.854h9.395v9.395h7.853L108.86,166.037z M138.952,102.991c-0.44,0-0.881,0.146-1.248,0.514l-39.78,39.779
		c-0.367,0.367-0.514,0.808-0.514,1.248c0,0.954,0.661,1.614,1.615,1.614c0.44,0,0.881-0.146,1.248-0.514l39.78-39.779
		c0.367-0.367,0.514-0.808,0.514-1.248C140.566,103.651,139.906,102.991,138.952,102.991z M184.017,104.165l-12.184,12.184
		l-30.532-30.532l12.184-12.11c1.688-1.762,4.109-2.789,6.605-2.789c2.495,0,4.917,1.027,6.679,2.789l17.248,17.175
		c1.688,1.762,2.715,4.184,2.715,6.679S185.704,102.477,184.017,104.165z"/>
</g>
</svg>
