<?xml version="1.0" encoding="utf-8"?>
<!-- Generator: Adobe Illustrator 17.0.0, SVG Export Plug-In . SVG Version: 6.00 Build 0)  -->
<!DOCTYPE svg PUBLIC "-//W3C//DTD SVG 1.1 Tiny//EN" "http://www.w3.org/Graphics/SVG/1.1/DTD/svg11-tiny.dtd">
<svg version="1.1" baseProfile="tiny" id="Layer_1" xmlns="http://www.w3.org/2000/svg" xmlns:xlink="http://www.w3.org/1999/xlink"
	 x="0px" y="0px" width="256px" height="256px" viewBox="0 0 256 256" overflow="scroll" xml:space="preserve">
<circle fill="none" stroke="#000000" stroke-width="12" stroke-miterlimit="10" cx="127.357" cy="128.357" r="109.383"/>
<g>
	<path d="M162.282,184.852H93.694c-12.478,0-20.953-7.612-20.953-20.325c0-17.735,4.159-44.967,27.153-44.967
		c2.433,0,12.713,10.908,28.094,10.908c15.382,0,25.662-10.908,28.095-10.908c22.993,0,27.152,27.231,27.152,44.967
		C183.235,177.239,174.76,184.852,162.282,184.852z M127.988,124.582c-16.637,0-30.135-13.498-30.135-30.135
		s13.498-30.135,30.135-30.135s30.135,13.498,30.135,30.135S144.625,124.582,127.988,124.582z"/>
</g>
</svg>
