<svg xmlns="http://www.w3.org/2000/svg"><symbol id="briefcase" viewBox="0 0 256 256"><circle fill="none" stroke="#000" stroke-width="12" stroke-miterlimit="10" cx="127.357" cy="128.357" r="109.383"/><path d="M193.657 125.963H62.134V97.78c0-6.46 5.284-11.744 11.743-11.744h25.835V74.293c0-3.89 3.156-7.046 7.046-7.046h42.275c3.89 0 7.046 3.156 7.046 7.046v11.743h25.834c6.46 0 11.743 5.284 11.743 11.743v28.183zm0 42.275c0 6.46-5.284 11.743-11.743 11.743H73.877c-6.46 0-11.743-5.283-11.743-11.742v-35.23h49.32v11.744c0 2.568 2.13 4.697 4.698 4.697h23.486c2.57 0 4.697-2.13 4.697-4.698V133.01h49.32v35.228zm-46.972-82.202V76.64h-37.578v9.396h37.578zm-9.395 56.367H118.5v-9.395h18.79v9.395z"/></symbol><symbol id="check" viewBox="0 0 256 256"><circle fill="none" stroke="#000" stroke-width="10" stroke-miterlimit="10" cx="128.357" cy="128.357" r="109.383"/><path d="M187.81 109.823l-53.127 53.127-9.98 9.98c-1.32 1.32-3.155 2.054-4.99 2.054s-3.67-.733-4.99-2.055l-9.98-9.98-26.563-26.563c-1.32-1.32-2.055-3.155-2.055-4.99 0-1.834.734-3.668 2.055-4.99l9.98-9.978c1.32-1.322 3.154-2.056 4.99-2.056s3.668.734 4.99 2.055l21.573 21.645 48.137-48.21c1.32-1.32 3.155-2.055 4.99-2.055 1.834 0 3.67.734 4.99 2.055l9.98 9.98c1.32 1.32 2.053 3.154 2.053 4.99s-.733 3.667-2.053 4.988z"/></symbol><symbol id="contact" viewBox="0 0 256 256"><circle fill="none" stroke="#000" stroke-width="12" stroke-miterlimit="10" cx="127.357" cy="128.357" r="109.383"/><path d="M129.706 166.184c-3.597 0-7.193-.22-10.643-.587C109.448 174.11 98 180.13 85.3 183.36c-2.64.732-5.503 1.246-8.366 1.613h-.367c-1.468 0-2.79-1.175-3.156-2.79v-.072c-.366-1.834.882-2.935 1.983-4.256 4.624-5.21 9.908-9.615 13.358-21.872-15.12-8.587-24.807-21.87-24.807-36.77 0-25.982 29.43-46.973 65.762-46.973 36.33 0 65.762 20.99 65.762 46.972 0 25.98-29.43 46.972-65.76 46.972zM73.338 119.21c0 10.936 7.34 21.358 20.037 28.55l6.385 3.67-1.98 7.047c-1.396 5.21-3.23 9.247-5.14 12.623 7.414-3.082 14.166-7.266 20.185-12.55l3.156-2.79 4.184.44c3.156.368 6.386.588 9.542.588 30.532 0 56.367-17.175 56.367-37.578 0-20.404-25.835-37.578-56.367-37.578-30.533 0-56.368 17.176-56.368 37.58z"/></symbol><symbol id="fork" viewBox="0 0 256 256"><circle fill="none" stroke="#000" stroke-width="12" stroke-miterlimit="10" cx="127.357" cy="128.357" r="109.383"/><path d="M170.473 103.62c-.273 33.01-23.684 40.327-39.23 45.264-14.54 4.572-19.294 6.768-19.294 15.638v2.378c5.21 3.018 8.778 8.688 8.778 15.18 0 9.693-7.864 17.558-17.558 17.558s-17.558-7.864-17.558-17.558c0-6.492 3.566-12.162 8.78-15.18V91.914c-5.213-3.018-8.78-8.688-8.78-15.18 0-9.693 7.864-17.558 17.558-17.558s17.558 7.864 17.558 17.558c0 6.493-3.566 12.162-8.78 15.18v45.45c4.665-2.287 9.603-3.842 14.084-5.214 17.01-5.395 26.702-9.42 26.886-28.53-5.213-3.02-8.78-8.69-8.78-15.18 0-9.694 7.865-17.56 17.56-17.56s17.557 7.865 17.557 17.56c-.003 6.49-3.57 12.16-8.782 15.18zM103.17 67.954c-4.848 0-8.78 3.932-8.78 8.78s3.932 8.778 8.78 8.778 8.778-3.932 8.778-8.78-3.932-8.778-8.78-8.778zm0 105.346c-4.848 0-8.78 3.933-8.78 8.78s3.932 8.777 8.78 8.777 8.778-3.932 8.778-8.778-3.932-8.78-8.78-8.78zm58.524-93.64c-4.847 0-8.778 3.932-8.778 8.78s3.932 8.778 8.778 8.778 8.778-3.932 8.778-8.78-3.93-8.778-8.778-8.778z"/></symbol><symbol id="markup" viewBox="0 0 256 256"><circle fill="none" stroke="#000" stroke-width="10" stroke-miterlimit="10" cx="127.357" cy="128.357" r="109.383"/><path d="M95.42 167.476c-1.072 1.073-2.723 1.073-3.796 0l-38.46-38.46c-1.074-1.074-1.074-2.725 0-3.798l38.46-38.46c1.073-1.074 2.724-1.074 3.797 0l4.127 4.125c1.073 1.073 1.073 2.724 0 3.797L67.11 127.116l32.437 32.437c1.073 1.072 1.073 2.724 0 3.796l-4.126 4.126zm22.12 14.36c-.413 1.404-1.898 2.23-3.22 1.816l-5.116-1.403c-1.403-.413-2.23-1.898-1.816-3.302l30.786-106.553c.413-1.403 1.898-2.23 3.22-1.815l5.116 1.403c1.403.413 2.23 1.898 1.815 3.3L117.54 181.838zm46.55-14.36c-1.073 1.073-2.724 1.073-3.797 0l-4.127-4.127c-1.072-1.073-1.072-2.725 0-3.797l32.437-32.437-32.437-32.436c-1.072-1.073-1.072-2.724 0-3.797l4.127-4.126c1.073-1.073 2.724-1.073 3.797 0l38.46 38.46c1.074 1.074 1.074 2.725 0 3.798l-38.46 38.46z"/></symbol><symbol id="pencil" viewBox="0 0 256 256"><circle fill="none" stroke="#000" stroke-width="12" stroke-miterlimit="10" cx="127.357" cy="128.357" r="109.383"/><path d="M167.136 121.046l-61.064 61.064H75.54v-30.532l61.063-61.064 30.533 30.532zm-58.276 44.99L91.612 148.79l-6.68 6.678v7.854h9.396v9.395h7.853l6.68-6.68zm30.092-63.045c-.44 0-.88.147-1.248.515l-39.78 39.78c-.367.366-.514.807-.514 1.247 0 .954.66 1.614 1.615 1.614.44 0 .88-.146 1.248-.514l39.78-39.78c.367-.366.514-.807.514-1.247 0-.954-.66-1.614-1.615-1.614zm45.065 1.175l-12.184 12.184L141.3 85.816l12.185-12.11c1.688-1.762 4.11-2.79 6.605-2.79s4.917 1.028 6.68 2.79l17.247 17.175c1.688 1.762 2.715 4.184 2.715 6.68s-1.028 4.915-2.715 6.603z"/></symbol><symbol id="profile" viewBox="0 0 256 256"><circle fill="none" stroke="#000" stroke-width="12" stroke-miterlimit="10" cx="127.357" cy="128.357" r="109.383"/><path d="M162.282 184.852H93.694c-12.478 0-20.953-7.612-20.953-20.325 0-17.735 4.16-44.967 27.154-44.967 2.433 0 12.713 10.908 28.094 10.908 15.382 0 25.662-10.908 28.095-10.908 22.993 0 27.152 27.23 27.152 44.967 0 12.712-8.475 20.325-20.953 20.325zm-34.294-60.27c-16.637 0-30.135-13.498-30.135-30.135s13.498-30.135 30.135-30.135 30.135 13.498 30.135 30.135-13.498 30.135-30.135 30.135z"/></symbol></svg>